<svg width="24" height="24" viewBox="0 0 24 24" fill="none" xmlns="http://www.w3.org/2000/svg">
<path d="M21.1667 10.4167H19.3333" stroke="black" stroke-width="0.5" stroke-linecap="round" stroke-linejoin="round"/>
<path d="M6.5 8.58333V4" stroke="black" stroke-width="0.5" stroke-linecap="round" stroke-linejoin="round"/>
<path d="M3.75 4H9.25" stroke="black" stroke-width="0.5" stroke-linecap="round" stroke-linejoin="round"/>
<path d="M9.40767 8.58334H2.83333C2.3471 8.58334 1.88079 8.77649 1.53697 9.12031C1.19315 9.46412 1 9.93044 1 10.4167V15V17.75C1 18.2362 1.19315 18.7025 1.53697 19.0464C1.88079 19.3902 2.3471 19.5833 2.83333 19.5833H12.2438C12.9085 19.5834 13.5607 19.4028 14.1307 19.0608C14.7006 18.7188 15.1669 18.2284 15.4797 17.6418L19.3333 10.4167L14.3705 12.0703C14.209 12.1245 14.0357 12.1326 13.8699 12.0937C13.7041 12.0548 13.5524 11.9706 13.4318 11.8503L10.7038 9.11867C10.3598 8.7755 9.8936 8.58295 9.40767 8.58334Z" stroke="black" stroke-width="0.5" stroke-linecap="round" stroke-linejoin="round"/>
<path d="M23 15.9167V17.75" stroke="black" stroke-width="0.5" stroke-linecap="round" stroke-linejoin="round"/>
</svg>
