<svg width="191" height="132" viewBox="0 0 191 132" fill="none" xmlns="http://www.w3.org/2000/svg">
<path d="M184.577 43.0472C184.577 43.0472 182.679 38.802 180.331 38.802H158.461C156.121 38.802 154.223 40.7073 154.223 43.0472V47.1548H148.261C148.261 43.0979 148.261 40.5479 148.261 40.3016C148.261 38.802 146.704 38.9396 146.704 38.9396H133.418C133.418 18.1265 122.907 18.1989 122.907 18.1989H99.3998V11.1284H122.907V0.703674H44.9671V11.1284H70.5968V18.1989C70.5968 18.1989 57.5357 18.1989 47.0027 18.1989L32.8186 29.0438H21.8222C19.4751 29.0438 17.5769 30.9418 17.5769 33.2818V60.499H10.5138V31.4272H0.0751953V104.422H10.5138V74.372H17.5769V102.56C17.5769 104.9 19.4751 106.798 21.8222 106.798H32.8186L67.3225 131.458C67.3225 131.458 129.702 131.458 139.518 131.458C149.319 131.458 148.261 123.105 148.261 123.105C148.261 123.105 148.261 118.049 148.261 110.42H154.223V119.787C154.223 122.134 156.121 124.032 158.461 124.032H180.331C182.679 124.032 184.577 119.787 184.577 119.787L190.676 102.031V60.8105L184.577 43.0472Z" fill="#FEFEFE"/>
</svg>
